<svg width="137" height="40" viewBox="0 0 137 40" fill="none" xmlns="http://www.w3.org/2000/svg">
<path d="M48.462 24.1415C46.734 24.1415 45.384 23.7215 44.412 22.8815C43.44 22.0295 42.924 20.8235 42.864 19.2635C42.852 18.9155 42.846 18.3635 42.846 17.6075C42.846 16.8515 42.852 16.2995 42.864 15.9515C42.924 14.4275 43.446 13.2515 44.43 12.4235C45.426 11.5955 46.77 11.1815 48.462 11.1815C49.602 11.1815 50.592 11.3675 51.432 11.7395C52.284 12.1115 52.932 12.5855 53.376 13.1615C53.832 13.7375 54.072 14.3315 54.096 14.9435C54.096 15.0515 54.054 15.1415 53.97 15.2135C53.898 15.2855 53.808 15.3215 53.7 15.3215H51.072C50.952 15.3215 50.856 15.3035 50.784 15.2675C50.712 15.2315 50.652 15.1655 50.604 15.0695C50.448 14.7215 50.202 14.4215 49.866 14.1695C49.53 13.9055 49.062 13.7735 48.462 13.7735C47.034 13.7735 46.284 14.5295 46.212 16.0415C46.2 16.3775 46.194 16.8995 46.194 17.6075C46.194 18.3035 46.2 18.8255 46.212 19.1735C46.284 20.7575 47.052 21.5495 48.516 21.5495C49.224 21.5495 49.788 21.3695 50.208 21.0095C50.64 20.6375 50.856 20.0735 50.856 19.3175V18.9755H49.164C49.032 18.9755 48.924 18.9335 48.84 18.8495C48.756 18.7535 48.714 18.6395 48.714 18.5075V17.1755C48.714 17.0435 48.756 16.9355 48.84 16.8515C48.924 16.7555 49.032 16.7075 49.164 16.7075H53.7C53.832 16.7075 53.94 16.7555 54.024 16.8515C54.108 16.9355 54.15 17.0435 54.15 17.1755V19.2275C54.15 20.2475 53.916 21.1295 53.448 21.8735C52.98 22.6055 52.314 23.1695 51.45 23.5655C50.598 23.9495 49.602 24.1415 48.462 24.1415ZM60.4451 24.1415C58.9571 24.1415 57.8111 23.7875 57.0071 23.0795C56.2031 22.3715 55.7651 21.3755 55.6931 20.0915C55.6811 19.9355 55.6751 19.6655 55.6751 19.2815C55.6751 18.8975 55.6811 18.6275 55.6931 18.4715C55.7651 17.1995 56.2151 16.2095 57.0431 15.5015C57.8711 14.7815 59.0051 14.4215 60.4451 14.4215C61.8971 14.4215 63.0371 14.7815 63.8651 15.5015C64.6931 16.2095 65.1431 17.1995 65.2151 18.4715C65.2271 18.6275 65.2331 18.8975 65.2331 19.2815C65.2331 19.6655 65.2271 19.9355 65.2151 20.0915C65.1431 21.3755 64.7051 22.3715 63.9011 23.0795C63.0971 23.7875 61.9451 24.1415 60.4451 24.1415ZM60.4451 21.9455C60.9731 21.9455 61.3631 21.7895 61.6151 21.4775C61.8671 21.1535 62.0111 20.6615 62.0471 20.0015C62.0591 19.8815 62.0651 19.6415 62.0651 19.2815C62.0651 18.9215 62.0591 18.6815 62.0471 18.5615C62.0111 17.9135 61.8611 17.4275 61.5971 17.1035C61.3451 16.7795 60.9611 16.6175 60.4451 16.6175C59.4491 16.6175 58.9211 17.2655 58.8611 18.5615L58.8431 19.2815L58.8611 20.0015C58.8851 20.6615 59.0231 21.1535 59.2751 21.4775C59.5391 21.7895 59.9291 21.9455 60.4451 21.9455Z" fill="black"/>
<path d="M72.385 24.1415C70.669 24.1415 69.325 23.7275 68.353 22.8995C67.393 22.0595 66.883 20.8475 66.823 19.2635C66.811 18.9395 66.805 18.4115 66.805 17.6795C66.805 16.9355 66.811 16.3955 66.823 16.0595C66.883 14.4995 67.405 13.2995 68.389 12.4595C69.373 11.6075 70.705 11.1815 72.385 11.1815C73.441 11.1815 74.389 11.3615 75.229 11.7215C76.069 12.0695 76.729 12.5735 77.209 13.2335C77.701 13.8815 77.953 14.6435 77.965 15.5195V15.5555C77.965 15.6515 77.923 15.7355 77.839 15.8075C77.767 15.8675 77.683 15.8975 77.587 15.8975H75.157C75.001 15.8975 74.881 15.8675 74.797 15.8075C74.713 15.7355 74.641 15.6095 74.581 15.4295C74.413 14.8175 74.149 14.3915 73.789 14.1515C73.429 13.8995 72.955 13.7735 72.367 13.7735C70.951 13.7735 70.219 14.5655 70.171 16.1495C70.159 16.4735 70.153 16.9715 70.153 17.6435C70.153 18.3155 70.159 18.8255 70.171 19.1735C70.219 20.7575 70.951 21.5495 72.367 21.5495C72.955 21.5495 73.435 21.4235 73.807 21.1715C74.179 20.9075 74.437 20.4815 74.581 19.8935C74.629 19.7135 74.695 19.5935 74.779 19.5335C74.863 19.4615 74.989 19.4255 75.157 19.4255H77.587C77.695 19.4255 77.785 19.4615 77.857 19.5335C77.941 19.6055 77.977 19.6955 77.965 19.8035C77.953 20.6795 77.701 21.4475 77.209 22.1075C76.729 22.7555 76.069 23.2595 75.229 23.6195C74.389 23.9675 73.441 24.1415 72.385 24.1415ZM84.0877 24.1415C82.5997 24.1415 81.4537 23.7875 80.6497 23.0795C79.8457 22.3715 79.4077 21.3755 79.3357 20.0915C79.3237 19.9355 79.3177 19.6655 79.3177 19.2815C79.3177 18.8975 79.3237 18.6275 79.3357 18.4715C79.4077 17.1995 79.8577 16.2095 80.6857 15.5015C81.5137 14.7815 82.6477 14.4215 84.0877 14.4215C85.5397 14.4215 86.6797 14.7815 87.5077 15.5015C88.3357 16.2095 88.7857 17.1995 88.8577 18.4715C88.8697 18.6275 88.8757 18.8975 88.8757 19.2815C88.8757 19.6655 88.8697 19.9355 88.8577 20.0915C88.7857 21.3755 88.3477 22.3715 87.5437 23.0795C86.7397 23.7875 85.5877 24.1415 84.0877 24.1415ZM84.0877 21.9455C84.6157 21.9455 85.0057 21.7895 85.2577 21.4775C85.5097 21.1535 85.6537 20.6615 85.6897 20.0015C85.7017 19.8815 85.7077 19.6415 85.7077 19.2815C85.7077 18.9215 85.7017 18.6815 85.6897 18.5615C85.6537 17.9135 85.5037 17.4275 85.2397 17.1035C84.9877 16.7795 84.6037 16.6175 84.0877 16.6175C83.0917 16.6175 82.5637 17.2655 82.5037 18.5615L82.4857 19.2815L82.5037 20.0015C82.5277 20.6615 82.6657 21.1535 82.9177 21.4775C83.1817 21.7895 83.5717 21.9455 84.0877 21.9455ZM91.1136 23.9615C90.9816 23.9615 90.8736 23.9195 90.7896 23.8355C90.7056 23.7515 90.6636 23.6435 90.6636 23.5115V15.0515C90.6636 14.9195 90.7056 14.8115 90.7896 14.7275C90.8736 14.6435 90.9816 14.6015 91.1136 14.6015H93.1836C93.3156 14.6015 93.4236 14.6495 93.5076 14.7455C93.6036 14.8295 93.6516 14.9315 93.6516 15.0515V15.7715C94.3116 14.9915 95.1996 14.6015 96.3156 14.6015H97.1076C97.2396 14.6015 97.3476 14.6435 97.4316 14.7275C97.5156 14.8115 97.5576 14.9195 97.5576 15.0515V16.9055C97.5576 17.0255 97.5156 17.1335 97.4316 17.2295C97.3476 17.3135 97.2396 17.3555 97.1076 17.3555H95.3616C94.8696 17.3555 94.4856 17.4935 94.2096 17.7695C93.9456 18.0335 93.8136 18.4115 93.8136 18.9035V23.5115C93.8136 23.6435 93.7656 23.7515 93.6696 23.8355C93.5856 23.9195 93.4776 23.9615 93.3456 23.9615H91.1136ZM103.178 24.1415C101.69 24.1415 100.544 23.7875 99.7395 23.0795C98.9355 22.3715 98.4975 21.3755 98.4255 20.0915C98.4135 19.9355 98.4075 19.6655 98.4075 19.2815C98.4075 18.8975 98.4135 18.6275 98.4255 18.4715C98.4975 17.1995 98.9475 16.2095 99.7755 15.5015C100.604 14.7815 101.738 14.4215 103.178 14.4215C104.63 14.4215 105.77 14.7815 106.598 15.5015C107.426 16.2095 107.876 17.1995 107.948 18.4715C107.96 18.6275 107.966 18.8975 107.966 19.2815C107.966 19.6655 107.96 19.9355 107.948 20.0915C107.876 21.3755 107.438 22.3715 106.634 23.0795C105.83 23.7875 104.678 24.1415 103.178 24.1415ZM103.178 21.9455C103.706 21.9455 104.096 21.7895 104.348 21.4775C104.6 21.1535 104.744 20.6615 104.78 20.0015C104.792 19.8815 104.798 19.6415 104.798 19.2815C104.798 18.9215 104.792 18.6815 104.78 18.5615C104.744 17.9135 104.594 17.4275 104.33 17.1035C104.078 16.7795 103.694 16.6175 103.178 16.6175C102.182 16.6175 101.654 17.2655 101.594 18.5615L101.576 19.2815L101.594 20.0015C101.618 20.6615 101.756 21.1535 102.008 21.4775C102.272 21.7895 102.662 21.9455 103.178 21.9455ZM110.203 23.9615C110.071 23.9615 109.963 23.9195 109.879 23.8355C109.795 23.7515 109.753 23.6435 109.753 23.5115V15.0515C109.753 14.9195 109.795 14.8115 109.879 14.7275C109.963 14.6435 110.071 14.6015 110.203 14.6015H112.273C112.405 14.6015 112.513 14.6435 112.597 14.7275C112.693 14.8115 112.741 14.9195 112.741 15.0515V15.7355C113.065 15.3395 113.479 15.0215 113.983 14.7815C114.499 14.5415 115.081 14.4215 115.729 14.4215C116.785 14.4215 117.643 14.7815 118.303 15.5015C118.963 16.2095 119.293 17.2055 119.293 18.4895V23.5115C119.293 23.6315 119.251 23.7395 119.167 23.8355C119.083 23.9195 118.975 23.9615 118.843 23.9615H116.575C116.455 23.9615 116.347 23.9195 116.251 23.8355C116.167 23.7395 116.125 23.6315 116.125 23.5115V18.5975C116.125 18.0335 115.987 17.6015 115.711 17.3015C115.435 16.9895 115.039 16.8335 114.523 16.8335C114.019 16.8335 113.623 16.9895 113.335 17.3015C113.047 17.6015 112.903 18.0335 112.903 18.5975V23.5115C112.903 23.6315 112.861 23.7395 112.777 23.8355C112.693 23.9195 112.585 23.9615 112.453 23.9615H110.203ZM124.128 24.1415C123.492 24.1415 122.91 24.0215 122.382 23.7815C121.866 23.5295 121.458 23.1935 121.158 22.7735C120.87 22.3415 120.726 21.8675 120.726 21.3515C120.726 20.5235 121.062 19.8575 121.734 19.3535C122.418 18.8495 123.354 18.5015 124.542 18.3095L126.792 17.9675V17.7155C126.792 17.2595 126.696 16.9235 126.504 16.7075C126.312 16.4915 125.988 16.3835 125.532 16.3835C125.256 16.3835 125.028 16.4315 124.848 16.5275C124.668 16.6235 124.482 16.7555 124.29 16.9235C124.122 17.0675 123.996 17.1635 123.912 17.2115C123.876 17.3075 123.81 17.3555 123.714 17.3555H121.752C121.632 17.3555 121.53 17.3195 121.446 17.2475C121.374 17.1635 121.344 17.0675 121.356 16.9595C121.368 16.6355 121.524 16.2755 121.824 15.8795C122.136 15.4835 122.604 15.1415 123.228 14.8535C123.864 14.5655 124.644 14.4215 125.568 14.4215C127.044 14.4215 128.136 14.7515 128.844 15.4115C129.552 16.0595 129.906 16.9355 129.906 18.0395V23.5115C129.906 23.6315 129.864 23.7395 129.78 23.8355C129.696 23.9195 129.588 23.9615 129.456 23.9615H127.368C127.248 23.9615 127.14 23.9195 127.044 23.8355C126.96 23.7395 126.918 23.6315 126.918 23.5115V22.8815C126.654 23.2535 126.282 23.5595 125.802 23.7995C125.334 24.0275 124.776 24.1415 124.128 24.1415ZM124.974 22.0895C125.526 22.0895 125.97 21.9095 126.306 21.5495C126.654 21.1895 126.828 20.6615 126.828 19.9655V19.7135L125.298 19.9835C124.218 20.1755 123.678 20.5535 123.678 21.1175C123.678 21.4175 123.804 21.6575 124.056 21.8375C124.308 22.0055 124.614 22.0895 124.974 22.0895Z" fill="#EC5863"/>
<path d="M14.2208 4.98869C15.6455 4.48917 17.2113 5.16285 17.7174 6.49273C18.1048 7.51091 17.7581 8.61769 16.9363 9.30529L17.3804 10.5163L18.0869 11.3316C18.2482 11.5182 18.4928 11.6074 18.738 11.5772C19.3991 11.4959 20.056 11.4928 20.6993 11.5604C20.9173 11.5836 21.1342 11.5116 21.2907 11.3595L21.8005 10.8661L22.1764 9.77185C21.8566 9.33293 21.7483 8.75165 21.9379 8.19933C22.2597 7.26306 23.3107 6.77916 24.2454 7.16256C25.0506 7.49245 25.4887 8.38808 25.253 9.22153C25.1032 9.75239 24.7242 10.15 24.2576 10.3468L23.8415 11.5594L23.9364 12.2276C23.969 12.4573 24.1054 12.6579 24.3047 12.7782C24.9746 13.1847 25.5899 13.6817 26.1301 14.2562C26.3116 14.4496 26.5824 14.5325 26.8427 14.4801L28.1825 14.2111L29.6961 13.3717C29.7039 12.6274 30.1017 11.9079 30.8019 11.5195C31.8606 10.9326 33.2014 11.327 33.7655 12.4024C34.2748 13.3725 33.9551 14.592 33.0327 15.1892C32.3124 15.6547 31.4335 15.6377 30.7551 15.2402L29.2325 16.084L28.3823 16.9871C28.1541 17.2294 28.0728 17.572 28.1599 17.8928C28.1604 17.8947 28.1607 17.896 28.1612 17.8979C28.3102 18.4507 28.4006 19.0063 28.438 19.557C28.4597 19.8851 28.6454 20.1803 28.9362 20.3371L30.0459 20.9353L32.2454 21.35C32.6331 21.0124 33.1672 20.8491 33.713 20.9515C34.6915 21.1363 35.3215 22.1048 35.0708 23.0797C34.8551 23.9145 34.0325 24.4703 33.1723 24.3609C32.5857 24.2863 32.1121 23.9338 31.8578 23.4598L29.6441 23.0427L28.2787 23.2089C28.027 23.24 27.8072 23.3975 27.7046 23.628C27.296 24.5379 26.7323 25.3748 26.0364 26.0973C25.8634 26.2768 25.7985 26.5338 25.8613 26.7744L26.2006 28.0843L27.0384 29.3942C27.9599 29.2563 28.9188 29.6536 29.4508 30.4856C30.1659 31.6034 29.8415 33.0834 28.7285 33.8046C27.6161 34.5257 26.1023 34.2119 25.3732 33.1081C24.8627 32.3353 24.8571 31.382 25.2709 30.6257L24.3815 29.2354L23.288 28.3384C23.1261 28.2048 22.9054 28.1695 22.7078 28.2397C22.4885 28.3178 22.2649 28.3876 22.0362 28.4485C20.7935 28.7796 19.5406 28.8223 18.3489 28.6198C18.1742 28.5905 17.9955 28.6402 17.8619 28.7557L17.2751 29.2642L16.8386 30.336C17.1339 30.7923 17.2093 31.3783 16.9894 31.919C16.6156 32.8366 15.5392 33.2616 14.6276 32.8274C13.8425 32.4535 13.4548 31.535 13.7366 30.7157C13.916 30.1939 14.3158 29.8178 14.7928 29.6473L15.2763 28.4594L15.1865 27.4161C14.3146 26.8717 13.5388 26.1731 12.9044 25.3474L11.4132 25.4942L10.0175 26.1823C10.0266 27.1158 9.54482 28.0039 8.69918 28.4338C7.50426 29.0407 6.03648 28.5034 5.42117 27.2331C4.80604 25.9634 5.27521 24.4421 6.47012 23.8352C7.36433 23.3809 8.41073 23.5673 9.13879 24.2224L10.455 23.573L11.3685 22.5962C11.4282 22.5323 11.4503 22.4424 11.4276 22.3584L11.4273 22.3571C11.0051 20.7902 11.0482 19.2063 11.4718 17.7506C11.4945 17.6707 11.4774 17.5846 11.4235 17.521L10.6355 16.5826L8.93758 15.6942C8.46992 15.8994 7.9155 15.8988 7.42793 15.6434C6.54711 15.182 6.22972 14.0748 6.75476 13.2157C7.2157 12.4624 8.19747 12.1764 8.99469 12.5626C9.51073 12.8124 9.84362 13.2797 9.94203 13.7966L11.6399 14.6849L12.8484 14.7983C12.9323 14.8064 13.0141 14.7711 13.0674 14.7061C13.6155 14.0312 14.268 13.4354 15.0092 12.9467C15.2126 12.8119 15.339 12.5886 15.3422 12.3453L15.3547 11.2518L14.881 9.96133C13.8541 9.88759 12.9251 9.26768 12.557 8.30058C12.0509 6.97071 12.7959 5.48757 14.2208 4.98869Z" fill="#EC5863"/>
<path d="M25.9898 18.4765C25.0729 15.0737 21.5559 13.0542 18.1342 13.966C14.7125 14.8778 12.6819 18.3756 13.5988 21.7785C14.5156 25.1813 18.0327 27.2008 21.4543 26.289C24.876 25.3772 26.9066 21.8794 25.9898 18.4765Z" fill="#F58A97"/>
<path d="M20.9484 24.4109C17.8476 25.2372 14.6687 23.6565 13.4173 20.8204C13.4527 21.1391 13.5128 21.4592 13.5988 21.7785C14.5156 25.1814 18.0326 27.2008 21.4543 26.289C24.8761 25.3771 26.9066 21.8795 25.9898 18.4765C25.9037 18.1573 25.7949 17.8502 25.6653 17.5566C26.0073 20.635 24.049 23.5847 20.9484 24.4109Z" fill="#F07281"/>
<path d="M11.324 33.496C11.0629 32.5269 10.0614 31.9518 9.08698 32.2115C8.11258 32.4711 7.53433 33.4672 7.79542 34.4362C8.05651 35.4053 9.05807 35.9804 10.0325 35.7207C11.0069 35.4611 11.5851 34.465 11.324 33.496Z" fill="#EB5569"/>
<path d="M34.1106 27.9379C33.9381 27.2979 33.2766 26.918 32.633 27.0895C31.9894 27.261 31.6074 27.9189 31.7799 28.559C31.9523 29.1991 32.6139 29.5789 33.2575 29.4074C33.9011 29.2359 34.283 28.578 34.1106 27.9379Z" fill="#EB5569"/>
<path d="M30.8429 6.00213C30.5889 5.05936 29.6145 4.49988 28.6665 4.75249C27.7185 5.0051 27.1559 5.97416 27.4099 6.91693C27.6639 7.8597 28.6383 8.41918 29.5863 8.16656C30.5343 7.91395 31.0969 6.9449 30.8429 6.00213Z" fill="#EB5569"/>
<path d="M20.1955 22.0477C19.9587 21.1687 19.0502 20.6471 18.1664 20.8826C17.2826 21.1181 16.7581 22.0216 16.9949 22.9005C17.2318 23.7795 18.1402 24.3011 19.024 24.0656C19.9078 23.8301 20.4323 22.9266 20.1955 22.0477Z" fill="#EB5569"/>
<path d="M24.3108 19.5818C24.1496 18.9835 23.5313 18.6285 22.9297 18.7888C22.3281 18.9491 21.9711 19.564 22.1323 20.1623C22.2935 20.7606 22.9119 21.1156 23.5134 20.9553C24.115 20.795 24.472 20.18 24.3108 19.5818Z" fill="#EB5569"/>
<path d="M19.9578 17.0961C19.8224 16.5937 19.3032 16.2956 18.7981 16.4302C18.2929 16.5648 17.9931 17.0812 18.1285 17.5835C18.2639 18.0859 18.7831 18.384 19.2882 18.2494C19.7934 18.1148 20.0932 17.5984 19.9578 17.0961Z" fill="#EB5569"/>
</svg>
